<?xml version="1.0" encoding="UTF-8"?>
<!DOCTYPE svg PUBLIC "-//W3C//DTD SVG 1.1//EN" "http://www.w3.org/Graphics/SVG/1.1/DTD/svg11.dtd">
<svg xmlns="http://www.w3.org/2000/svg" version="1.1" width="500px" height="500px" style="shape-rendering:geometricPrecision; text-rendering:geometricPrecision; image-rendering:optimizeQuality; fill-rule:evenodd; clip-rule:evenodd" xmlns:xlink="http://www.w3.org/1999/xlink">
<g><path style="opacity:1" fill="#191717" d="M 320.5,78.5 C 320.821,80.0481 321.821,80.7148 323.5,80.5C 325.403,80.7959 327.07,81.4625 328.5,82.5C 328.821,84.0481 329.821,84.7148 331.5,84.5C 335.459,85.5942 339.125,87.2609 342.5,89.5C 342.821,91.0481 343.821,91.7148 345.5,91.5C 345.5,92.1667 345.833,92.5 346.5,92.5C 346.821,94.0481 347.821,94.7148 349.5,94.5C 355.936,98.4224 362.27,102.589 368.5,107C 369.672,109.696 371.672,111.363 374.5,112C 382.66,119.535 389.993,127.701 396.5,136.5C 396.427,138.027 397.094,139.027 398.5,139.5C 400.9,141.296 402.567,143.63 403.5,146.5C 403.427,148.027 404.094,149.027 405.5,149.5C 406.488,150.795 407.488,152.128 408.5,153.5C 408.427,155.027 409.094,156.027 410.5,156.5C 414.63,163.094 417.963,170.094 420.5,177.5C 420.427,179.027 421.094,180.027 422.5,180.5C 423.695,182.751 424.695,185.085 425.5,187.5C 425.12,189.698 425.787,191.365 427.5,192.5C 428.651,196.772 429.651,201.106 430.5,205.5C 430.259,207.898 430.926,209.898 432.5,211.5C 445.54,277.487 430.04,335.487 386,385.5C 380.162,391.671 373.995,397.504 367.5,403C 354.356,412.135 340.689,420.468 326.5,428C 321.072,429.589 315.739,431.589 310.5,434C 304.488,435.775 299.655,434.275 296,429.5C 295.667,406.5 295.333,383.5 295,360.5C 293.299,352.192 289.799,344.858 284.5,338.5C 285.167,337.833 285.833,337.167 286.5,336.5C 301.983,335.297 316.65,331.297 330.5,324.5C 332.027,324.573 333.027,323.906 333.5,322.5C 334.514,321.326 335.847,320.66 337.5,320.5C 339.749,319.92 341.415,318.587 342.5,316.5C 346.874,312.128 350.874,307.461 354.5,302.5C 355.906,302.027 356.573,301.027 356.5,299.5C 369.206,274.236 372.039,247.903 365,220.5C 361.978,210.273 356.812,201.44 349.5,194C 355.309,177.374 354.642,161.041 347.5,145C 341.461,144.427 335.461,144.761 329.5,146C 323.474,148.715 317.474,151.381 311.5,154C 306.613,157.395 301.613,160.562 296.5,163.5C 265.3,155.515 234.133,155.515 203,163.5C 201.887,162.695 200.721,162.028 199.5,161.5C 199.027,160.094 198.027,159.427 196.5,159.5C 195.833,159.5 195.5,159.167 195.5,158.5C 195.027,157.094 194.027,156.427 192.5,156.5C 184.855,153.012 177.188,149.512 169.5,146C 163.288,144.657 157.121,144.49 151,145.5C 144.434,161.341 143.934,177.341 149.5,193.5C 132.328,214.899 126.495,239.233 132,266.5C 134.002,278.533 137.835,289.867 143.5,300.5C 143.427,302.027 144.094,303.027 145.5,303.5C 146.488,304.795 147.488,306.128 148.5,307.5C 148.427,309.027 149.094,310.027 150.5,310.5C 155.128,314.156 159.794,317.822 164.5,321.5C 164.821,323.048 165.821,323.715 167.5,323.5C 181.154,331.049 195.82,335.382 211.5,336.5C 212.5,337.167 213.5,337.833 214.5,338.5C 208.648,346.209 204.981,354.875 203.5,364.5C 193.844,368.206 183.844,369.373 173.5,368C 167.601,366.568 162.601,363.735 158.5,359.5C 157.738,357.738 156.404,356.738 154.5,356.5C 151.08,351.988 147.913,347.322 145,342.5C 136.962,332.892 126.795,328.392 114.5,329C 111.968,329.612 111.135,331.112 112,333.5C 117.31,337.309 122.476,341.309 127.5,345.5C 129.451,348.786 131.785,351.786 134.5,354.5C 137.173,360.511 139.84,366.511 142.5,372.5C 142.738,374.404 143.738,375.738 145.5,376.5C 155.796,386.943 168.462,391.943 183.5,391.5C 188.52,391.332 193.52,390.999 198.5,390.5C 199.833,390.5 201.167,390.5 202.5,390.5C 202.175,397.687 202.509,404.687 203.5,411.5C 203.666,417.509 203.499,423.509 203,429.5C 199.345,434.275 194.512,435.775 188.5,434C 174.617,429.059 161.617,422.559 149.5,414.5C 149.027,413.094 148.027,412.427 146.5,412.5C 141.644,410.24 137.311,407.24 133.5,403.5C 133.027,402.094 132.027,401.427 130.5,401.5C 129.094,401.027 128.427,400.027 128.5,398.5C 127.738,396.738 126.404,395.738 124.5,395.5C 111.948,384.868 101.282,372.535 92.5,358.5C 92.7148,356.821 92.0481,355.821 90.5,355.5C 85.4342,348.035 81.4342,340.035 78.5,331.5C 78.7148,329.821 78.0481,328.821 76.5,328.5C 62.9611,296.51 58.4611,263.176 63,228.5C 63.521,224.394 64.3543,220.394 65.5,216.5C 66.9238,214.485 67.5905,212.152 67.5,209.5C 71.6847,190.775 78.518,173.108 88,156.5C 89.0491,154.382 90.5491,152.716 92.5,151.5C 93.9063,151.027 94.573,150.027 94.5,148.5C 96.8545,143.12 100.188,138.454 104.5,134.5C 106.262,133.738 107.262,132.404 107.5,130.5C 108.833,129.167 110.167,127.833 111.5,126.5C 113.262,125.738 114.262,124.404 114.5,122.5C 116.806,120.861 118.806,118.861 120.5,116.5C 122.749,115.92 124.415,114.587 125.5,112.5C 126.694,111.728 127.694,110.728 128.5,109.5C 130.027,109.573 131.027,108.906 131.5,107.5C 133.749,106.92 135.415,105.587 136.5,103.5C 138.027,103.573 139.027,102.906 139.5,101.5C 164.198,82.4646 192.198,70.9646 223.5,67C 256.903,62.6551 289.236,66.4884 320.5,78.5 Z"/></g>
<g><path style="opacity:0.91" fill="#838181" d="M 320.5,78.5 C 321.71,78.9321 322.71,79.5987 323.5,80.5C 321.821,80.7148 320.821,80.0481 320.5,78.5 Z"/></g>
<g><path style="opacity:0.902" fill="#8a8989" d="M 328.5,82.5 C 329.71,82.9321 330.71,83.5987 331.5,84.5C 329.821,84.7148 328.821,84.0481 328.5,82.5 Z"/></g>
<g><path style="opacity:0.949" fill="#817f7f" d="M 342.5,89.5 C 343.71,89.9321 344.71,90.5987 345.5,91.5C 343.821,91.7148 342.821,91.0481 342.5,89.5 Z"/></g>
<g><path style="opacity:0.949" fill="#828080" d="M 346.5,92.5 C 347.71,92.9321 348.71,93.5987 349.5,94.5C 347.821,94.7148 346.821,94.0481 346.5,92.5 Z"/></g>
<g><path style="opacity:0.761" fill="#898888" d="M 139.5,101.5 C 139.027,102.906 138.027,103.573 136.5,103.5C 136.973,102.094 137.973,101.427 139.5,101.5 Z"/></g>
<g><path style="opacity:0.949" fill="#696868" d="M 136.5,103.5 C 135.415,105.587 133.749,106.92 131.5,107.5C 132.585,105.413 134.251,104.08 136.5,103.5 Z"/></g>
<g><path style="opacity:0.722" fill="#908f8f" d="M 131.5,107.5 C 131.027,108.906 130.027,109.573 128.5,109.5C 128.973,108.094 129.973,107.427 131.5,107.5 Z"/></g>
<g><path style="opacity:0.753" fill="#8b8a8a" d="M 125.5,112.5 C 124.415,114.587 122.749,115.92 120.5,116.5C 121.585,114.413 123.251,113.08 125.5,112.5 Z"/></g>
<g><path style="opacity:0.706" fill="#848383" d="M 114.5,122.5 C 114.262,124.404 113.262,125.738 111.5,126.5C 111.738,124.596 112.738,123.262 114.5,122.5 Z"/></g>
<g><path style="opacity:0.831" fill="#868484" d="M 107.5,130.5 C 107.262,132.404 106.262,133.738 104.5,134.5C 104.738,132.596 105.738,131.262 107.5,130.5 Z"/></g>
<g><path style="opacity:0.502" fill="#9e9d9d" d="M 396.5,136.5 C 397.906,136.973 398.573,137.973 398.5,139.5C 397.094,139.027 396.427,138.027 396.5,136.5 Z"/></g>
<g><path style="opacity:0.431" fill="#a4a3a3" d="M 403.5,146.5 C 404.906,146.973 405.573,147.973 405.5,149.5C 404.094,149.027 403.427,148.027 403.5,146.5 Z"/></g>
<g><path style="opacity:0.584" fill="#878686" d="M 94.5,148.5 C 94.573,150.027 93.9063,151.027 92.5,151.5C 92.427,149.973 93.0937,148.973 94.5,148.5 Z"/></g>
<g><path style="opacity:0.518" fill="#8c8b8b" d="M 408.5,153.5 C 409.906,153.973 410.573,154.973 410.5,156.5C 409.094,156.027 408.427,155.027 408.5,153.5 Z"/></g>
<g><path style="opacity:0.447" fill="#999898" d="M 192.5,156.5 C 194.027,156.427 195.027,157.094 195.5,158.5C 193.973,158.573 192.973,157.906 192.5,156.5 Z"/></g>
<g><path style="opacity:0.596" fill="#807f7f" d="M 196.5,159.5 C 198.027,159.427 199.027,160.094 199.5,161.5C 197.973,161.573 196.973,160.906 196.5,159.5 Z"/></g>
<g><path style="opacity:0.31" fill="#a9a9a9" d="M 420.5,177.5 C 421.906,177.973 422.573,178.973 422.5,180.5C 421.094,180.027 420.427,179.027 420.5,177.5 Z"/></g>
<g><path style="opacity:0.933" fill="#828181" d="M 425.5,187.5 C 426.537,188.93 427.204,190.597 427.5,192.5C 425.787,191.365 425.12,189.698 425.5,187.5 Z"/></g>
<g><path style="opacity:0.906" fill="#807e7e" d="M 430.5,205.5 C 431.738,207.214 432.405,209.214 432.5,211.5C 430.926,209.898 430.259,207.898 430.5,205.5 Z"/></g>
<g><path style="opacity:0.612" fill="#888787" d="M 67.5,209.5 C 67.5905,212.152 66.9238,214.485 65.5,216.5C 65.4095,213.848 66.0762,211.515 67.5,209.5 Z"/></g>
<g><path style="opacity:0.525" fill="#8d8c8c" d="M 356.5,299.5 C 356.573,301.027 355.906,302.027 354.5,302.5C 354.427,300.973 355.094,299.973 356.5,299.5 Z"/></g>
<g><path style="opacity:0.478" fill="#9a9999" d="M 143.5,300.5 C 144.906,300.973 145.573,301.973 145.5,303.5C 144.094,303.027 143.427,302.027 143.5,300.5 Z"/></g>
<g><path style="opacity:0.682" fill="#9d9c9c" d="M 148.5,307.5 C 149.906,307.973 150.573,308.973 150.5,310.5C 149.094,310.027 148.427,309.027 148.5,307.5 Z"/></g>
<g><path style="opacity:0.965" fill="#646262" d="M 342.5,316.5 C 341.415,318.587 339.749,319.92 337.5,320.5C 338.585,318.413 340.251,317.08 342.5,316.5 Z"/></g>
<g><path style="opacity:0.937" fill="#848383" d="M 164.5,321.5 C 165.71,321.932 166.71,322.599 167.5,323.5C 165.821,323.715 164.821,323.048 164.5,321.5 Z"/></g>
<g><path style="opacity:0.792" fill="#848282" d="M 333.5,322.5 C 333.027,323.906 332.027,324.573 330.5,324.5C 330.973,323.094 331.973,322.427 333.5,322.5 Z"/></g>
<g><path style="opacity:0.867" fill="#908f8f" d="M 76.5,328.5 C 78.0481,328.821 78.7148,329.821 78.5,331.5C 77.5987,330.71 76.9321,329.71 76.5,328.5 Z"/></g>
<g><path style="opacity:0.047" fill="#c9c9c9" d="M 211.5,336.5 C 212.978,336.238 214.311,336.571 215.5,337.5C 215.376,338.107 215.043,338.44 214.5,338.5C 213.5,337.833 212.5,337.167 211.5,336.5 Z"/></g>
<g><path style="opacity:0.18" fill="#c9c8c8" d="M 286.5,336.5 C 285.833,337.167 285.167,337.833 284.5,338.5C 283.957,338.44 283.624,338.107 283.5,337.5C 284.325,336.614 285.325,336.281 286.5,336.5 Z"/></g>
<g><path style="opacity:0.937" fill="#868585" d="M 90.5,355.5 C 92.0481,355.821 92.7148,356.821 92.5,358.5C 91.5987,357.71 90.9321,356.71 90.5,355.5 Z"/></g>
<g><path style="opacity:0.612" fill="#a9a9a9" d="M 154.5,356.5 C 156.404,356.738 157.738,357.738 158.5,359.5C 156.596,359.262 155.262,358.262 154.5,356.5 Z"/></g>
<g><path style="opacity:0.694" fill="#818080" d="M 142.5,372.5 C 144.262,373.262 145.262,374.596 145.5,376.5C 143.738,375.738 142.738,374.404 142.5,372.5 Z"/></g>
<g><path style="opacity:0.71" fill="#a1a0a0" d="M 124.5,395.5 C 126.404,395.738 127.738,396.738 128.5,398.5C 126.596,398.262 125.262,397.262 124.5,395.5 Z"/></g>
<g><path style="opacity:0.671" fill="#a1a0a0" d="M 130.5,401.5 C 132.027,401.427 133.027,402.094 133.5,403.5C 131.973,403.573 130.973,402.906 130.5,401.5 Z"/></g>
<g><path style="opacity:0.742" fill="#5f5e5e" d="M 198.5,390.5 C 199.919,389.549 201.585,389.216 203.5,389.5C 203.5,396.833 203.5,404.167 203.5,411.5C 202.509,404.687 202.175,397.687 202.5,390.5C 201.167,390.5 199.833,390.5 198.5,390.5 Z"/></g>
<g><path style="opacity:0.384" fill="#a8a7a7" d="M 146.5,412.5 C 148.027,412.427 149.027,413.094 149.5,414.5C 147.973,414.573 146.973,413.906 146.5,412.5 Z"/></g>
</svg>
