<?xml version="1.0" encoding="UTF-8"?>
<!DOCTYPE svg PUBLIC "-//W3C//DTD SVG 1.1//EN" "http://www.w3.org/Graphics/SVG/1.1/DTD/svg11.dtd">
<svg xmlns="http://www.w3.org/2000/svg" version="1.1" width="560px" height="560px" style="shape-rendering:geometricPrecision; text-rendering:geometricPrecision; image-rendering:optimizeQuality; fill-rule:evenodd; clip-rule:evenodd" xmlns:xlink="http://www.w3.org/1999/xlink">
<g><path style="opacity:1" fill="#fefefe" d="M -0.5,-0.5 C 186.167,-0.5 372.833,-0.5 559.5,-0.5C 559.5,186.167 559.5,372.833 559.5,559.5C 372.833,559.5 186.167,559.5 -0.5,559.5C -0.5,372.833 -0.5,186.167 -0.5,-0.5 Z"/></g>
<g><path style="opacity:1" fill="#171515" d="M 223.5,437.5 C 224.5,437.5 225.5,437.5 226.5,437.5C 226.173,447.015 226.506,456.348 227.5,465.5C 228.061,471.732 227.228,477.732 225,483.5C 221.191,486.092 217.024,486.925 212.5,486C 131.747,454.697 84.5799,396.197 71,310.5C 63.9003,221.875 97.067,153.042 170.5,104C 240.911,64.5129 311.911,63.5129 383.5,101C 450.245,141.95 485.578,201.783 489.5,280.5C 489.126,353.745 460.126,412.579 402.5,457C 385.278,469.279 366.612,478.945 346.5,486C 339.082,488.211 334.248,485.711 332,478.5C 331.667,453.5 331.333,428.5 331,403.5C 329.071,394.141 324.904,385.974 318.5,379C 337.845,376.551 356.178,370.885 373.5,362C 396.146,346.568 408.98,325.068 412,297.5C 418.182,267.233 411.682,240.233 392.5,216.5C 398.418,197.855 397.584,179.522 390,161.5C 381.23,160.049 372.73,161.215 364.5,165C 352.87,169.832 341.87,175.666 331.5,182.5C 296.823,173.167 262.156,173.167 227.5,182.5C 213.144,172.659 197.478,165.492 180.5,161C 176.833,160.333 173.167,160.333 169.5,161C 163.798,174.945 161.965,189.445 164,204.5C 164.317,208.939 165.484,213.105 167.5,217C 149.461,237.797 142.294,261.964 146,289.5C 147.799,311.581 155.465,331.247 169,348.5C 179.003,358.827 190.837,366.327 204.5,371C 216.252,374.939 228.252,377.606 240.5,379C 233.286,386.968 228.952,396.301 227.5,407C 199.31,418.939 178.144,411.439 164,384.5C 156.5,374.417 146.5,368.75 134,367.5C 124.078,368.404 122.912,372.237 130.5,379C 136.152,381.75 140.986,385.583 145,390.5C 151.443,400.384 157.11,410.717 162,421.5C 176.469,436.101 193.969,441.934 214.5,439C 217.478,438.304 220.478,437.804 223.5,437.5 Z"/></g>
<g><path style="opacity:1" fill="#5a5858" d="M 223.5,437.5 C 224.568,436.566 225.901,436.232 227.5,436.5C 227.5,446.167 227.5,455.833 227.5,465.5C 226.506,456.348 226.173,447.015 226.5,437.5C 225.5,437.5 224.5,437.5 223.5,437.5 Z"/></g>
</svg>
